<?xml version="1.0" encoding="UTF-8"?>
<svg id="Layer_1" xmlns="http://www.w3.org/2000/svg" xmlns:xlink="http://www.w3.org/1999/xlink" version="1.1" viewBox="0 0 192 192">
  <!-- Generator: Adobe Illustrator 30.6.0, SVG Export Plug-In . SVG Version: 2.1.4 Build 109)  -->
  <defs>
    <style>
      .st0, .st1 {
        fill: none;
      }

      .st2 {
        fill: #11141f;
      }

      .st3 {
        fill: url(#linear-gradient1);
      }

      .st4 {
        fill: url(#linear-gradient);
      }

      .st1 {
        stroke: #a589f0;
        stroke-linecap: round;
        stroke-linejoin: round;
        stroke-width: 12px;
      }

      .st5 {
        opacity: .6;
      }
    </style>
    <linearGradient id="linear-gradient" x1="16.2" y1="19" x2="175.8" y2="173" gradientUnits="userSpaceOnUse">
      <stop offset=".5" stop-color="#363257" stop-opacity="0"/>
      <stop offset="1" stop-color="#363257"/>
    </linearGradient>
    <linearGradient id="linear-gradient1" x1="16.2" y1="19" x2="175.8" y2="173" gradientUnits="userSpaceOnUse">
      <stop offset="0" stop-color="#363257"/>
      <stop offset=".5" stop-color="#363257" stop-opacity="0"/>
    </linearGradient>
  </defs>
  <path class="st2" d="M132,0H60C26.9,0,0,26.9,0,60v72c0,33.1,26.9,60,60,60h72c33.1,0,60-26.9,60-60V60c0-33.1-26.9-60-60-60Z"/>
  <rect class="st0" width="192" height="192"/>
  <path class="st1" d="M128.7,54.4h23.8"/>
  <path class="st1" d="M140.6,42.5v23.8"/>
  <path class="st1" d="M90.1,149.4c29.5,1.6,54.7-21,56.3-50.5.1-2.4-2.8-3.7-4.8-2.4-11.6,7.2-26.2,7.2-37.8,0-16.7-10.4-21.7-32.4-11.3-49.1,1.3-2.1,0-4.9-2.4-4.8-27.3,1.5-49,23.2-50.5,50.5-1.6,29.5,21,54.7,50.5,56.3Z"/>
  <g class="st5">
    <path class="st4" d="M132,3c31.4,0,57,25.6,57,57v72c0,31.4-25.6,57-57,57H60c-31.4,0-57-25.6-57-57V60C3,28.6,28.6,3,60,3h72M132,0H60C26.9,0,0,26.9,0,60v72c0,33.1,26.9,60,60,60h72c33.1,0,60-26.9,60-60V60c0-33.1-26.9-60-60-60h0Z"/>
  </g>
  <g class="st5">
    <path class="st3" d="M132,3c31.4,0,57,25.6,57,57v72c0,31.4-25.6,57-57,57H60c-31.4,0-57-25.6-57-57V60C3,28.6,28.6,3,60,3h72M132,0H60C26.9,0,0,26.9,0,60v72c0,33.1,26.9,60,60,60h72c33.1,0,60-26.9,60-60V60c0-33.1-26.9-60-60-60h0Z"/>
  </g>
</svg>