<?xml version="1.0" encoding="UTF-8"?>
<svg id="Layer_1" xmlns="http://www.w3.org/2000/svg" version="1.1" viewBox="0 0 192 192">
  <!-- Generator: Adobe Illustrator 30.6.0, SVG Export Plug-In . SVG Version: 2.1.4 Build 109)  -->
  <defs>
    <style>
      .st0 {
        fill: #e8b64a;
      }

      .st1 {
        fill: #12141f;
      }
    </style>
  </defs>
  <rect class="st1" width="192" height="192"/>
  <g>
    <path class="st0" d="M92.3,115.2c19.8-1.1,42-7.8,46.5-21.4,8.7-26.5-55.5-18.2-64.4.3-6.3,13.3,16.7,20.3,33.3,9.5,16.5-10.8.6-26.4-8.4-8.5-6.2,12.3-19.5,11.4-19.6,3-.1-13.9,41.6-25.1,46.3-8.8,2.7,9.5-7.4,15.9-15.4,19-48.6,18.9-78.9-27.8-12.1-36.1,49.9-6.3,51.5-19.2,50.4-25.2-1.8-9.1-20.5-11.5-31.6-7.2-25.2,10-15.5,32.5-3.2,19.5,16.1-17.1,27.6-9.2,23.1-2.6-4.9,7.1-25.9,10.3-49,12.5-55.1,5.2-50,34.6-20.5,43.7,5.9,1.8,14.5,2.7,23.7,2.2.2,0,.7,0,.9,0Z"/>
    <g>
      <path class="st0" d="M86.9,115.4c-18.8,10.9-31.6,3.1-34,1.9-2.3-1.2-4.7-1.2-7.2.5-2.6,1.8-3.4,4.2-2.4,6.5,2.9,6.3,11.9,7.3,19.8,5.1,9.1-2.5,17-6.9,23.3-13-1.1,7.8-9.4,12.6-13.7,14.9-8.5,4.4-4.1,8.5-1.8,9.2,5.8,1.7,16.4-8.4,16.3-21.1,2,17.5,14.2,26.8,21.1,24.2,3.9-1.5,5.7-8.9-3.8-11.6-3.8-1.1-14.2-5.2-16.9-15.5,7.6,6.8,17.1,11.1,27.8,12.6,9.3,1.3,19.6-1.7,22.7-10.2,1.1-3.1.2-6-2.9-7.7-3-1.7-5.7-1.2-8.4.8-2.8,2-17.4,14.5-39.8,3.7h-.3Z"/>
      <path class="st0" d="M86.9,140.1c-3.9.2-6.8,3.6-6.6,7.4.2,3.9,3.6,6.8,7.4,6.6,3.9-.2,6.8-3.6,6.6-7.4-.2-3.9-3.6-6.8-7.4-6.6Z"/>
    </g>
  </g>
</svg>